<?xml version="1.0" standalone="no"?>
<!DOCTYPE svg PUBLIC "-//W3C//DTD SVG 20010904//EN"
 "http://www.w3.org/TR/2001/REC-SVG-20010904/DTD/svg10.dtd">
<svg version="1.0" xmlns="http://www.w3.org/2000/svg"
 width="900.000000pt" height="697.000000pt" viewBox="0 0 900.000000 697.000000"
 preserveAspectRatio="xMidYMid meet">

<g transform="translate(0.000000,697.000000) scale(0.100000,-0.100000)"
fill="#000000" stroke="none">
<path d="M4305 5832 c-28 -27 -135 -124 -240 -217 -104 -93 -193 -174 -197
-179 -4 -6 -8 -65 -8 -131 0 -66 -3 -239 -7 -383 l-6 -264 -77 -56 -78 -57 -7
-73 c-4 -41 -5 -75 -3 -78 2 -2 35 5 74 15 38 11 81 22 97 25 l27 6 1 303 c1
166 4 384 8 484 l6 181 225 201 c123 111 228 201 232 201 5 0 8 -299 8 -665 0
-524 3 -666 13 -669 6 -3 72 -7 145 -10 l132 -6 0 112 c0 167 4 184 51 202
l39 16 0 278 0 277 -185 259 c-101 143 -188 263 -192 267 -5 5 -31 -13 -58
-39z"/>
<path d="M4770 4611 l0 -160 48 -6 c26 -4 71 -12 100 -19 l52 -13 0 81 0 81
-97 98 c-53 53 -98 97 -99 97 -2 0 -4 -72 -4 -159z"/>
<path d="M4200 3889 c-321 -57 -563 -258 -636 -527 -20 -73 -19 -219 1 -297
66 -257 295 -455 600 -520 166 -36 404 -18 548 40 138 57 270 165 336 277 42
72 87 204 96 281 l7 57 -337 -2 -338 -3 1 -42 c0 -24 1 -54 1 -68 l1 -25 235
0 c129 0 235 -2 235 -5 0 -2 -9 -29 -21 -59 -49 -132 -166 -237 -324 -292 -72
-26 -93 -28 -220 -29 -120 0 -150 3 -209 23 -270 91 -419 275 -419 517 1 148
56 269 170 375 226 207 588 222 873 36 l65 -43 52 41 c29 23 52 46 52 53 1 16
-110 94 -186 132 -119 59 -223 83 -383 87 -80 1 -170 -1 -200 -7z"/>
<path d="M1100 3200 l0 -640 605 0 605 0 0 65 0 65 -505 0 -505 0 0 230 0 230
445 0 445 0 0 70 0 70 -445 0 -445 0 0 205 0 205 500 0 500 0 0 70 0 70 -600
0 -600 0 0 -640z"/>
<path d="M2640 3200 l0 -640 435 0 435 0 0 65 0 65 -340 0 -340 0 0 575 0 575
-95 0 -95 0 0 -640z"/>
<path d="M5450 3200 l0 -640 95 0 95 0 0 640 0 640 -95 0 -95 0 0 -640z"/>
<path d="M5980 3200 l0 -640 100 0 100 0 0 500 c0 275 2 500 6 500 5 0 209
-178 579 -505 50 -44 126 -111 170 -150 44 -38 96 -84 115 -101 19 -18 89 -80
155 -138 l120 -106 87 0 88 0 0 640 0 640 -100 0 -100 0 0 -516 0 -516 -47 42
c-27 24 -154 135 -283 249 -129 113 -251 220 -270 237 -48 43 -193 170 -255
224 -80 70 -288 253 -303 267 -8 8 -41 13 -88 13 l-74 0 0 -640z"/>
<path d="M1060 2175 c0 -22 4 -24 57 -27 l57 -3 -3 -117 -3 -118 31 0 31 0 0
120 0 120 60 0 c57 0 60 1 60 25 l0 25 -145 0 -145 0 0 -25z"/>
<path d="M1400 2055 l0 -145 30 0 30 0 0 60 0 60 80 0 c44 0 83 1 88 3 4 1 8
-26 10 -60 3 -62 3 -63 32 -63 l30 0 0 145 0 145 -30 0 c-30 0 -30 -1 -30 -55
l0 -55 -90 0 -90 0 0 55 c0 54 0 55 -30 55 l-30 0 0 -145z"/>
<path d="M1770 2055 l0 -145 120 0 120 0 0 25 c0 24 -2 24 -92 27 l-93 3 0 34
0 33 80 2 c78 1 80 2 80 26 0 24 -2 25 -82 28 l-82 3 1 29 1 30 94 0 c93 0 93
0 93 25 l0 25 -120 0 -120 0 0 -145z"/>
<path d="M2282 2180 c-95 -58 -95 -192 0 -250 76 -46 246 -2 185 48 -8 7 -19
6 -37 -3 -44 -25 -98 -19 -131 14 -51 52 -33 128 38 157 30 13 38 13 77 -5 32
-14 47 -16 55 -8 52 52 -112 93 -187 47z"/>
<path d="M2540 2055 l0 -145 30 0 30 0 0 145 0 145 -30 0 -30 0 0 -145z"/>
<path d="M2650 2175 c0 -24 3 -25 60 -25 l60 0 0 -120 0 -120 31 0 30 0 -2
118 -1 117 55 3 c48 3 56 6 59 24 2 18 13 10 66 -51 l62 -72 0 -70 0 -69 30 0
30 0 0 70 c0 70 0 71 47 123 26 29 56 62 67 75 l19 22 -39 0 c-34 -1 -44 -7
-79 -50 -22 -28 -42 -50 -45 -49 -3 0 -23 22 -44 49 l-39 50 -184 0 -183 0 0
-25z"/>
<path d="M3430 2055 l0 -145 30 0 30 0 0 145 0 145 -30 0 -30 0 0 -145z"/>
<path d="M3560 2055 l0 -145 30 0 30 0 0 98 0 97 97 -97 c67 -69 103 -98 119
-98 l24 0 0 145 0 145 -30 0 -30 0 0 -97 0 -98 -98 98 c-65 65 -105 97 -120
97 -22 0 -22 -2 -22 -145z"/>
<path d="M4010 2175 c0 -24 3 -25 60 -25 l60 0 0 -120 0 -120 25 0 25 0 0 120
0 120 60 0 c57 0 60 1 60 25 l0 25 -145 0 -145 0 0 -25z"/>
<path d="M4350 2055 l0 -145 30 0 30 0 0 60 0 60 80 0 c44 0 83 1 88 3 4 1 8
-26 10 -60 3 -59 4 -63 27 -63 l25 0 0 145 0 145 -25 0 c-24 0 -25 -3 -25 -55
l0 -55 -90 0 -90 0 0 55 c0 54 0 55 -30 55 l-30 0 0 -145z"/>
<path d="M4720 2055 l0 -145 120 0 120 0 0 25 c0 25 -1 25 -90 25 l-90 0 0 38
0 37 80 -3 80 -4 0 31 0 31 -80 0 -80 0 0 30 0 30 90 0 c89 0 90 0 90 25 l0
25 -120 0 -120 0 0 -145z"/>
<path d="M5215 2188 c-50 -27 -60 -80 -22 -116 13 -13 53 -28 95 -38 113 -25
123 -63 20 -72 -36 -3 -67 1 -92 12 -47 20 -43 20 -56 -4 -24 -45 131 -79 219
-49 36 13 51 35 51 78 0 51 -39 76 -153 97 -36 6 -58 27 -44 41 20 20 99 19
149 -2 11 -4 20 0 27 14 10 18 7 22 -18 36 -35 18 -146 20 -176 3z"/>
<path d="M5500 2100 c0 -112 8 -136 54 -168 45 -31 141 -31 180 -1 45 36 56
69 56 174 l0 96 -27 -3 c-28 -3 -28 -3 -33 -100 -6 -116 -20 -138 -85 -138
-32 0 -47 6 -66 26 -21 23 -24 36 -27 120 -4 92 -5 94 -28 94 -24 0 -24 -1
-24 -100z"/>
<path d="M5870 2054 l0 -146 116 4 c113 3 116 4 140 31 27 32 31 63 9 93 -11
17 -12 27 -3 51 6 16 8 41 4 56 -10 43 -51 57 -166 57 l-100 0 0 -146z m198
87 c8 -5 12 -17 10 -27 -3 -16 -14 -19 -81 -22 l-77 -3 0 31 0 30 68 0 c37 0
73 -4 80 -9z m20 -135 c6 -31 -26 -46 -100 -46 l-68 0 0 35 0 36 82 -3 c73 -3
83 -5 86 -22z"/>
<path d="M6210 2110 c0 -149 38 -200 150 -200 112 0 150 51 150 200 l0 90 -30
0 -30 0 0 -85 c0 -122 -20 -155 -93 -155 -65 1 -87 40 -87 154 l0 86 -30 0
-30 0 0 -90z"/>
<path d="M6590 2055 l0 -145 25 0 c24 0 25 3 25 60 l0 60 49 0 c48 0 49 -1 90
-60 38 -54 46 -60 78 -60 l35 0 -17 28 c-10 15 -29 42 -43 61 -23 31 -24 35
-9 46 26 19 40 67 28 98 -16 43 -58 57 -166 57 l-95 0 0 -145z m199 78 c6 -11
6 -24 0 -35 -8 -15 -23 -18 -79 -18 l-70 0 0 35 0 35 70 0 c55 0 71 -3 79 -17z"/>
<path d="M6930 2056 l0 -146 100 0 c151 0 196 28 175 108 -4 15 -6 52 -6 83 3
84 -12 93 -155 97 l-114 4 0 -146z m205 64 c0 -24 -3 -25 -72 -28 l-73 -3 0
31 0 31 73 -3 c69 -3 72 -4 72 -28z m14 -109 c18 -33 -16 -51 -92 -51 l-67 0
0 35 0 35 75 0 c62 0 76 -3 84 -19z"/>
<path d="M7324 2190 c-28 -11 -54 -48 -54 -76 0 -29 41 -61 94 -74 96 -24 116
-32 116 -45 0 -35 -109 -48 -164 -20 -36 19 -39 19 -54 -5 -12 -19 -9 -22 30
-40 59 -27 161 -27 205 0 62 37 52 108 -19 140 -24 11 -52 20 -64 20 -30 0
-84 20 -84 31 0 6 15 16 33 24 32 13 87 9 116 -10 14 -8 41 12 41 30 0 29
-142 47 -196 25z"/>
<path d="M7572 2173 c4 -39 28 -42 28 -4 0 21 -5 31 -16 31 -11 0 -14 -8 -12
-27z"/>
<path d="M7616 2183 c-12 -31 -6 -40 29 -40 35 0 45 17 27 42 -11 17 -50 15
-56 -2z"/>
</g>
</svg>
