<?xml version="1.0" standalone="no"?>
<!DOCTYPE svg PUBLIC "-//W3C//DTD SVG 20010904//EN"
 "http://www.w3.org/TR/2001/REC-SVG-20010904/DTD/svg10.dtd">
<svg version="1.0" xmlns="http://www.w3.org/2000/svg"
 width="387.000000pt" height="271.000000pt" viewBox="0 0 387.000000 271.000000"
 preserveAspectRatio="xMidYMid meet">

<g transform="translate(0.000000,271.000000) scale(0.100000,-0.100000)"
fill="#000000" stroke="none">
<path d="M1795 2484 c-391 -57 -673 -227 -1090 -655 -82 -85 -221 -225 -308
-312 l-158 -158 28 -22 c53 -41 136 -122 297 -292 88 -93 208 -214 266 -270
58 -55 106 -103 108 -107 10 -22 -290 122 -416 200 -40 24 -74 43 -76 41 -5
-6 -76 -305 -76 -321 0 -18 174 -92 355 -151 239 -77 476 -123 698 -133 67 -3
156 -14 197 -24 184 -47 442 -51 625 -12 337 73 661 300 1093 766 97 104 213
221 257 259 l81 71 -76 66 c-41 37 -136 132 -210 211 -152 162 -359 370 -406
405 -68 53 -428 156 -665 190 -140 21 -446 24 -574 6 -85 -12 -276 -52 -320
-67 l-20 -7 20 17 c48 40 229 119 367 161 155 46 379 84 497 84 30 0 51 3 48
6 -4 4 -46 15 -94 26 -85 19 -372 33 -448 22z m1029 -544 c147 -37 244 -115
286 -228 45 -121 18 -341 -61 -493 -45 -86 -147 -204 -207 -240 -20 -12 -39
-24 -40 -25 -9 -7 34 -63 55 -73 31 -14 86 -14 118 1 14 6 28 9 31 5 3 -3 0
-34 -7 -69 -13 -59 -17 -64 -54 -83 -27 -13 -68 -20 -126 -23 -133 -7 -189 20
-234 109 l-25 49 -113 0 c-187 0 -299 34 -385 114 -56 53 -96 133 -107 214
l-7 53 -23 -48 c-50 -108 -153 -214 -250 -259 -107 -50 -144 -53 -504 -54
-185 0 -343 0 -352 0 -15 0 -16 5 -5 48 10 39 17 48 37 50 24 3 28 14 122 415
54 227 98 415 97 418 0 3 -23 9 -51 12 -29 4 -54 8 -56 11 -3 2 -1 24 4 48 l9
43 329 0 c344 0 401 -5 512 -46 111 -42 191 -148 196 -263 1 -30 3 -54 4 -53
0 1 24 37 52 79 93 139 232 243 384 288 89 26 269 26 371 0z m326 -882 c11
-12 20 -35 20 -50 0 -36 -40 -78 -75 -78 -34 0 -75 42 -75 76 0 65 86 99 130
52z"/>
<path d="M2555 1832 c-97 -60 -200 -337 -235 -632 -8 -76 -8 -104 2 -135 17
-52 66 -85 125 -85 71 0 69 46 -4 76 l-31 14 13 51 c8 28 16 53 18 55 7 7 110
-17 141 -33 34 -18 34 -17 71 77 38 99 74 251 92 390 14 114 14 128 0 162 -30
70 -126 100 -192 60z"/>
<path d="M1469 1823 c-25 -4 -27 -11 -74 -210 -26 -114 -69 -295 -95 -402 -26
-108 -46 -199 -43 -203 6 -12 118 -10 150 3 108 40 199 234 239 509 24 168 8
260 -50 289 -25 12 -90 19 -127 14z"/>
<path d="M3060 1050 c-38 -38 -16 -100 36 -100 22 0 23 3 14 20 -13 24 -30 26
-30 3 0 -12 -3 -14 -11 -6 -6 6 -9 26 -7 44 2 29 7 34 31 37 31 4 46 -20 28
-42 -8 -10 -8 -16 2 -25 17 -14 27 -4 27 26 0 26 -32 63 -55 63 -8 0 -24 -9
-35 -20z"/>
<path d="M3085 1030 c-3 -5 1 -10 10 -10 9 0 13 5 10 10 -3 6 -8 10 -10 10 -2
0 -7 -4 -10 -10z"/>
</g>
</svg>
