<?xml version="1.0" standalone="no"?>
<!DOCTYPE svg PUBLIC "-//W3C//DTD SVG 20010904//EN"
 "http://www.w3.org/TR/2001/REC-SVG-20010904/DTD/svg10.dtd">
<svg version="1.0" xmlns="http://www.w3.org/2000/svg"
 width="474.000000pt" height="474.000000pt" viewBox="0 0 474.000000 474.000000"
 preserveAspectRatio="xMidYMid meet">

<g transform="translate(0.000000,474.000000) scale(0.100000,-0.100000)"
fill="#000000" stroke="none">
<path d="M845 3105 c-236 -61 -431 -231 -520 -452 -127 -316 -20 -694 252
-889 146 -105 297 -150 482 -142 205 9 352 76 502 228 145 147 209 309 209
527 0 126 -17 206 -64 308 -43 94 -82 150 -152 219 -96 97 -212 164 -342 197
-89 22 -286 25 -367 4z m325 -20 c295 -69 510 -289 566 -583 68 -356 -145
-709 -499 -826 -26 -9 -90 -21 -143 -27 -350 -41 -686 197 -775 551 -29 115
-23 279 14 395 80 244 290 434 541 490 83 18 217 18 296 0z"/>
<path d="M885 3035 c-38 -9 -112 -36 -164 -61 -160 -79 -278 -216 -338 -393
-33 -100 -41 -245 -19 -351 18 -87 79 -218 129 -275 l34 -40 64 11 c106 19
218 85 240 141 19 50 -35 121 -121 159 -22 10 -40 21 -40 25 0 5 32 9 71 11
l70 3 -127 110 c-208 180 -286 250 -269 242 20 -8 262 -142 343 -189 45 -26
85 -48 88 -48 4 0 3 8 -1 18 -4 9 -40 115 -81 235 -41 120 -80 233 -88 252
-35 82 18 10 144 -200 74 -123 135 -223 136 -222 3 2 38 349 50 480 3 42 9 77
13 77 3 0 15 -82 24 -182 10 -101 24 -228 30 -283 l12 -100 132 216 c73 119
135 224 139 233 3 9 10 16 14 16 5 0 -2 -30 -15 -67 -13 -38 -56 -158 -94
-267 -39 -110 -70 -201 -68 -202 2 -2 241 126 384 206 61 35 61 19 0 -27 -23
-18 -62 -51 -87 -74 -25 -22 -93 -81 -152 -132 l-107 -92 70 -3 c38 -2 69 -6
69 -11 0 -4 -18 -15 -39 -24 -57 -26 -120 -86 -127 -123 -5 -25 0 -38 26 -67
44 -51 162 -107 237 -114 l59 -5 36 48 c50 68 94 158 112 229 90 356 -99 704
-447 820 -100 33 -241 41 -342 20z"/>
<path d="M1010 2455 c0 -27 -22 -115 -28 -115 -4 1 -27 28 -51 60 -25 33 -46
59 -47 57 -1 -1 3 -30 9 -65 5 -34 8 -65 5 -68 -3 -3 -30 4 -59 15 l-54 21 82
-78 c46 -42 98 -101 117 -130 l35 -52 36 55 c21 30 74 89 119 131 44 42 76 75
71 73 -6 -2 -32 -13 -58 -23 -26 -10 -49 -17 -51 -15 -2 2 0 28 5 57 6 30 9
58 7 64 -2 6 -23 -15 -46 -46 -24 -31 -47 -54 -52 -51 -4 3 -11 32 -15 65 -4
33 -11 60 -16 60 -5 0 -9 -7 -9 -15z"/>
<path d="M1010 1990 c0 -13 -57 -106 -95 -154 -16 -21 -49 -53 -73 -72 l-43
-33 41 -11 c116 -31 279 -29 389 6 8 3 -4 18 -34 40 -51 39 -123 131 -152 194
-17 37 -33 52 -33 30z"/>
<path d="M2347 3031 c-17 -6 -17 -8 -3 -20 13 -11 16 -37 16 -148 0 -126 -1
-135 -20 -140 -39 -10 -19 -23 35 -23 54 0 74 13 35 23 -19 5 -20 14 -20 161
0 163 0 164 -43 147z"/>
<path d="M1990 3021 c0 -5 10 -11 23 -13 22 -3 22 -5 22 -143 0 -138 0 -140
-23 -143 -12 -2 -20 -8 -16 -13 9 -15 274 -10 280 6 3 7 4 34 2 61 l-3 49 -18
-42 c-22 -49 -54 -65 -123 -61 l-49 3 -3 68 -3 67 41 0 c37 0 42 -3 51 -30 16
-46 29 -26 29 45 0 66 -15 95 -26 50 -7 -29 -31 -45 -67 -45 -23 0 -25 4 -29
55 -1 30 -1 60 0 65 5 13 118 13 142 0 11 -6 25 -28 31 -50 16 -53 27 -39 21
28 l-4 52 -139 0 c-79 0 -139 -4 -139 -9z"/>
<path d="M2752 3008 c2 -15 10 -23 23 -23 13 0 21 8 23 23 3 18 -1 22 -23 22
-22 0 -26 -4 -23 -22z"/>
<path d="M2650 2930 c-8 -5 -37 -7 -65 -4 -42 5 -55 2 -77 -16 -32 -24 -39
-76 -12 -87 13 -5 12 -9 -8 -30 -17 -18 -20 -28 -12 -41 8 -12 6 -23 -5 -44
-15 -25 -15 -29 1 -44 22 -23 123 -30 157 -12 39 21 48 44 31 76 -14 24 -22
28 -83 32 -37 3 -68 10 -69 15 -1 6 21 14 49 18 67 11 97 39 90 83 -3 19 -2
34 4 34 5 0 9 -4 9 -10 0 -13 27 -13 35 0 7 11 -11 40 -24 40 -3 0 -13 -5 -21
-10z m-49 -31 c31 -31 5 -89 -42 -89 -47 0 -65 67 -27 94 30 21 44 20 69 -5z
m33 -192 c16 -26 -17 -47 -75 -47 -59 0 -81 20 -53 51 24 26 111 24 128 -4z"/>
<path d="M2760 2930 c-22 -6 -23 -8 -7 -15 14 -6 17 -21 17 -97 0 -81 -2 -90
-20 -95 -39 -10 -19 -23 35 -23 54 0 74 13 35 23 -18 5 -20 14 -20 111 0 58
-3 106 -7 105 -5 -1 -19 -4 -33 -9z"/>
<path d="M2971 2914 c-30 -25 -31 -25 -31 -5 0 17 -6 21 -35 21 -38 0 -47 -14
-15 -23 18 -5 20 -14 20 -92 0 -78 -2 -87 -20 -92 -39 -10 -19 -23 35 -23 54
0 74 13 35 23 -17 4 -20 14 -20 56 0 99 54 167 100 126 17 -15 20 -31 20 -97
0 -71 -2 -80 -20 -85 -39 -10 -19 -23 35 -23 54 0 74 13 35 23 -18 5 -20 14
-20 90 0 80 -2 87 -26 106 -35 28 -56 26 -93 -5z"/>
<path d="M2080 2551 c-41 -21 -77 -79 -86 -137 -7 -51 24 -130 63 -158 33 -24
119 -32 152 -14 28 15 67 75 56 86 -4 4 -10 0 -13 -8 -3 -8 -18 -27 -33 -42
-57 -58 -156 -23 -179 63 -36 131 84 265 165 185 13 -13 27 -36 31 -50 3 -14
13 -26 21 -26 11 0 13 12 11 56 -3 61 -9 72 -28 49 -11 -13 -16 -13 -41 0 -38
20 -77 19 -119 -4z"/>
<path d="M3957 2564 c-4 -4 -7 -16 -7 -26 0 -14 6 -19 23 -16 14 2 22 10 22
23 0 20 -25 32 -38 19z"/>
<path d="M4102 2523 c-7 -24 -22 -47 -32 -53 -25 -13 -26 -32 -2 -28 15 3 18
-8 22 -88 3 -55 10 -98 19 -108 20 -24 67 -20 85 6 18 25 22 73 6 63 -5 -3
-10 -14 -10 -24 0 -10 -7 -24 -16 -31 -27 -23 -46 10 -51 87 -2 37 0 73 5 80
4 7 22 13 40 15 43 3 41 18 -3 18 -37 0 -41 7 -47 75 -3 29 -3 28 -16 -12z"/>
<path d="M2384 2461 c-76 -32 -88 -155 -21 -213 47 -42 137 -8 153 57 11 43
-3 106 -28 131 -26 27 -73 38 -104 25z m62 -19 c21 -14 34 -51 34 -99 0 -61
-21 -93 -60 -93 -51 0 -74 62 -55 149 9 42 50 64 81 43z"/>
<path d="M2640 2453 c-17 -12 -25 -13 -28 -5 -4 14 -72 16 -72 2 0 -5 9 -10
20 -10 19 0 20 -7 20 -91 0 -82 -2 -91 -20 -96 -36 -10 -21 -18 35 -19 55 -2
74 9 35 19 -17 4 -20 14 -20 69 0 98 50 157 94 112 12 -11 16 -36 16 -96 0
-71 -2 -80 -20 -85 -37 -10 -20 -19 35 -20 55 0 73 10 35 20 -17 4 -20 14 -20
67 0 99 45 156 91 114 16 -14 19 -31 19 -96 0 -71 -2 -80 -20 -85 -37 -10 -21
-18 35 -19 56 0 72 9 35 21 -18 6 -20 15 -20 90 0 74 -3 87 -22 105 -28 26
-58 26 -92 -1 l-26 -20 -26 20 c-32 25 -52 26 -84 4z"/>
<path d="M3060 2453 c-17 -12 -25 -13 -28 -5 -4 14 -72 16 -72 2 0 -5 9 -10
20 -10 19 0 20 -7 20 -91 0 -82 -2 -91 -20 -96 -39 -10 -20 -21 35 -19 56 1
71 9 35 19 -18 4 -20 14 -20 75 0 59 3 73 25 96 51 55 85 19 85 -92 0 -65 -2
-74 -20 -79 -38 -10 -20 -20 35 -19 56 0 72 9 35 19 -18 5 -20 14 -20 77 0 62
3 74 25 95 52 53 85 17 85 -93 0 -65 -2 -74 -20 -79 -36 -10 -21 -18 35 -19
55 -2 73 9 35 19 -18 5 -20 14 -20 87 0 73 -3 83 -25 105 -30 30 -54 31 -89 4
l-26 -20 -26 20 c-32 25 -52 26 -84 4z"/>
<path d="M3740 2450 c-24 -24 -42 -26 -34 -5 5 12 -3 15 -37 15 -23 0 -39 -3
-35 -7 4 -5 13 -8 19 -8 14 0 26 -159 14 -181 -4 -8 -15 -14 -23 -14 -8 0 -13
-4 -10 -9 3 -4 29 -7 58 -6 66 4 68 4 41 15 -20 8 -23 17 -23 68 0 95 55 158
101 116 16 -14 19 -31 19 -96 0 -71 -2 -80 -20 -85 -37 -10 -21 -18 35 -19 55
0 72 9 35 19 -18 5 -20 14 -20 87 0 73 -3 83 -25 105 -29 30 -68 32 -95 5z"/>
<path d="M3935 2460 c-3 -5 0 -10 8 -10 22 0 27 -22 27 -112 0 -71 -2 -80 -20
-85 -37 -10 -20 -19 35 -20 55 0 73 10 35 20 -18 5 -20 14 -20 111 l0 106 -29
0 c-17 0 -33 -4 -36 -10z"/>
<path d="M3350 2451 c0 -6 7 -11 15 -11 12 0 15 -15 15 -77 0 -100 13 -127 63
-131 23 -2 48 3 62 12 18 12 24 13 28 2 3 -8 16 -11 36 -8 35 5 41 17 11 25
-18 5 -20 14 -20 101 l0 96 -29 0 c-35 0 -49 -16 -21 -23 17 -4 20 -14 20 -67
0 -84 -20 -120 -66 -120 -37 0 -49 27 -51 119 l-2 86 -31 3 c-16 2 -30 -1 -30
-7z"/>
<path d="M4247 2442 c21 -16 93 -166 93 -194 0 -17 -28 -58 -41 -58 -5 0 -9
12 -9 26 0 21 -4 25 -22 22 -39 -5 -33 -49 8 -62 38 -12 69 26 114 141 24 60
50 116 58 126 14 16 12 17 -29 17 -38 -1 -41 -2 -24 -12 11 -6 21 -12 22 -13
3 -2 -45 -126 -51 -132 -3 -4 -66 123 -66 133 0 3 10 9 23 14 17 7 8 9 -38 9
-59 1 -59 0 -38 -17z"/>
<path d="M2074 2081 c-52 -31 -78 -85 -78 -158 0 -48 5 -70 20 -90 68 -91 195
-97 240 -12 16 31 10 57 -6 28 -30 -53 -48 -64 -100 -64 -47 0 -55 3 -80 33
-34 40 -43 89 -29 153 14 63 55 109 99 109 45 0 67 -15 90 -61 12 -22 25 -37
31 -33 11 7 7 111 -4 106 -29 -12 -38 -12 -56 -3 -31 17 -93 13 -127 -8z"/>
<path d="M2560 2090 c0 -5 7 -10 15 -10 13 0 15 -23 15 -144 0 -140 -1 -144
-22 -151 -21 -7 -20 -8 10 -12 17 -2 47 -3 65 -1 l32 4 -27 12 -28 12 0 150 0
150 -30 0 c-16 0 -30 -4 -30 -10z"/>
<path d="M2700 2091 c0 -5 7 -11 15 -15 22 -8 22 -286 1 -286 -8 0 -18 -4 -21
-10 -4 -6 15 -10 49 -10 36 0 56 4 56 12 0 6 -3 8 -7 5 -3 -4 -12 -2 -20 4
-10 9 -13 48 -13 160 l0 149 -30 0 c-16 0 -30 -4 -30 -9z"/>
<path d="M2374 1989 c-73 -36 -71 -185 3 -218 43 -20 73 -13 110 24 34 34 35
38 31 92 -4 48 -10 61 -37 85 -33 29 -69 35 -107 17z m81 -23 c14 -10 20 -29
23 -77 3 -55 1 -67 -18 -87 -28 -30 -70 -26 -87 8 -18 35 -16 121 3 148 17 25
51 29 79 8z"/>
<path d="M2867 1974 c-50 -50 -48 -145 4 -188 17 -14 42 -26 55 -26 32 0 80
25 88 45 10 28 7 29 -16 8 -32 -28 -56 -35 -81 -21 -30 16 -46 39 -47 66 0 21
4 22 81 22 70 0 80 2 75 16 -3 9 -6 22 -6 29 0 7 -12 27 -26 44 -34 41 -89 43
-127 5z m103 -16 c11 -12 20 -30 20 -40 0 -15 -9 -18 -61 -18 l-61 0 6 28 c13
52 61 68 96 30z"/>
<path d="M3125 1989 c-45 -26 -60 -74 -30 -99 14 -12 13 -15 -5 -32 -23 -22
-25 -29 -8 -46 9 -9 7 -16 -6 -31 -42 -46 31 -88 123 -71 52 9 71 26 71 60 0
38 -16 48 -86 56 -32 3 -66 8 -74 10 -24 8 9 24 51 24 55 0 89 32 89 83 0 35
2 38 13 24 15 -21 43 -7 33 18 -5 13 -13 16 -34 11 -31 -8 -35 -8 -82 -1 -19
3 -44 0 -55 -6z m87 -34 c18 -41 -3 -75 -47 -75 -29 0 -37 5 -46 26 -23 61 66
108 93 49z m19 -176 c18 -18 19 -23 7 -35 -32 -32 -138 -30 -138 3 0 51 90 73
131 32z"/>
<path d="M3367 1979 c-58 -45 -58 -153 1 -199 37 -30 98 -22 130 16 29 34 20
45 -13 14 -33 -31 -73 -29 -102 4 -13 15 -23 36 -23 47 0 17 7 19 80 19 89 0
92 3 65 65 -22 55 -91 72 -138 34z m97 -21 c32 -45 22 -58 -44 -58 -67 0 -74
9 -39 54 25 32 62 34 83 4z"/>
</g>
</svg>
