<?xml version="1.0" standalone="no"?>
<!DOCTYPE svg PUBLIC "-//W3C//DTD SVG 20010904//EN"
 "http://www.w3.org/TR/2001/REC-SVG-20010904/DTD/svg10.dtd">
<svg version="1.0" xmlns="http://www.w3.org/2000/svg"
 width="2400.000000pt" height="2400.000000pt" viewBox="0 0 2400.000000 2400.000000"
 preserveAspectRatio="xMidYMid meet">

<g transform="translate(0.000000,2400.000000) scale(0.100000,-0.100000)"
fill="#000000" stroke="none">
<path d="M4525 13859 c-143 -11 -288 -37 -375 -65 -195 -65 -373 -200 -479
-363 -69 -107 -75 -138 -73 -371 0 -155 -3 -218 -14 -259 -54 -193 -233 -118
-289 121 -18 76 -20 289 -4 407 20 151 -17 301 -97 390 -50 55 -103 89 -184
117 -52 18 -94 19 -760 18 -547 0 -717 -3 -760 -13 -167 -40 -300 -177 -368
-376 -44 -131 -57 -221 -56 -410 0 -197 16 -311 60 -445 74 -218 108 -433 107
-675 0 -198 -9 -256 -69 -447 -52 -167 -75 -289 -81 -439 -9 -214 28 -341 129
-443 45 -44 70 -59 158 -94 213 -83 390 -115 640 -116 l175 -1 68 33 c80 39
103 71 141 185 32 95 93 219 136 272 17 22 50 53 73 68 36 24 49 28 92 24 28
-2 88 -20 135 -40 169 -71 397 -96 568 -62 101 21 242 89 363 176 191 137 290
151 347 50 44 -79 20 -191 -76 -351 -50 -83 -57 -101 -57 -147 0 -93 66 -138
265 -181 152 -33 299 -45 470 -39 244 10 413 52 628 159 109 54 127 60 164 54
48 -8 94 -30 128 -62 32 -30 105 -62 168 -74 27 -5 121 -12 208 -15 88 -3 267
-10 399 -16 132 -5 402 -9 600 -8 451 3 466 6 593 121 58 52 114 73 165 63 18
-4 66 -27 107 -51 160 -92 308 -129 489 -121 206 9 307 49 425 170 84 86 136
165 192 293 36 83 55 109 96 130 38 20 82 17 131 -7 60 -30 280 -257 357 -369
97 -140 145 -185 225 -209 74 -23 223 -28 305 -11 25 6 108 13 185 16 148 7
210 -2 296 -46 57 -29 194 -44 276 -30 129 22 178 23 235 4 72 -24 139 -21
188 8 22 13 104 64 182 114 79 50 163 99 188 108 41 15 93 17 480 14 430 -3
435 -3 478 -26 23 -12 48 -32 55 -43 12 -20 143 -113 229 -163 67 -39 137 -46
454 -46 280 -1 280 -1 336 25 118 54 208 42 291 -39 34 -34 56 -46 98 -55 76
-17 353 -15 537 4 190 20 225 27 307 64 144 65 257 168 361 328 80 122 124
161 192 170 57 8 103 -19 170 -95 186 -215 359 -334 602 -416 209 -69 484 -93
705 -61 66 10 154 20 195 22 71 4 80 2 143 -30 125 -66 253 -96 492 -117 154
-13 437 -13 585 0 374 33 731 169 1035 394 44 33 151 132 239 220 172 175 198
196 237 196 45 0 61 -29 65 -122 12 -273 17 -297 76 -341 73 -54 461 -192 679
-241 220 -49 320 -60 549 -61 300 0 491 35 734 134 276 113 556 329 688 529
65 99 189 355 222 456 98 301 84 562 -40 712 -90 111 -96 197 -22 305 71 103
83 150 82 309 -1 122 -4 145 -33 240 -18 58 -50 141 -71 185 -259 526 -1099
796 -1807 580 -241 -74 -499 -217 -688 -381 -82 -71 -104 -84 -140 -84 -35 0
-57 13 -134 78 -271 230 -713 381 -1306 446 -354 39 -837 44 -1041 11 -276
-45 -471 -177 -536 -363 -28 -82 -43 -102 -77 -102 -31 0 -62 20 -136 91 -202
191 -667 358 -1095 394 -478 39 -1262 45 -1423 10 -161 -34 -294 -138 -377
-294 -36 -67 -54 -90 -90 -113 -60 -39 -123 -36 -154 5 -18 25 -21 42 -21 150
0 112 -2 126 -25 167 -32 57 -111 107 -184 114 -28 4 -371 11 -763 16 -792 12
-796 12 -915 -52 -169 -90 -280 -300 -293 -552 -5 -94 -25 -160 -92 -288 -64
-126 -233 -377 -283 -422 -42 -38 -84 -47 -94 -20 -3 9 -6 105 -6 213 0 325
27 575 75 696 72 179 48 288 -76 350 -64 33 -135 42 -434 56 -543 25 -742 -18
-770 -168 -17 -92 -64 -96 -165 -14 -73 60 -153 104 -245 137 -76 26 -691 33
-855 9 -145 -21 -284 -66 -363 -119 -96 -63 -146 -56 -280 39 -58 42 -202 89
-312 104 -310 42 -860 73 -1315 74 l-365 2 -100 -49 c-82 -41 -112 -51 -165
-54 -57 -3 -70 -1 -103 22 -48 33 -108 64 -161 83 -93 33 -689 53 -951 32z
m787 -279 c118 -17 177 -86 178 -205 0 -74 -16 -133 -68 -255 -22 -52 -48
-129 -57 -170 -25 -118 -36 -683 -25 -1295 l9 -519 -22 -40 c-44 -80 -128
-103 -412 -112 -185 -6 -338 4 -388 27 -49 22 -72 74 -71 159 0 41 8 100 17
130 24 82 40 270 33 390 -8 128 -26 216 -60 293 -20 47 -32 61 -62 73 -80 33
-188 -20 -334 -166 -108 -108 -192 -226 -283 -397 -51 -94 -72 -124 -106 -148
l-43 -30 -275 2 c-299 3 -326 7 -383 66 -14 14 -122 193 -240 397 -215 373
-270 452 -324 466 -67 16 -106 -24 -136 -139 -56 -222 -54 -569 5 -798 32
-121 14 -228 -45 -271 -80 -58 -462 -44 -550 21 -71 52 -84 158 -36 287 57
156 61 577 11 1259 -20 266 -36 349 -85 446 -57 112 -80 188 -80 264 0 135 81
214 242 235 218 28 795 47 972 31 165 -14 191 -26 231 -106 27 -55 30 -69 33
-194 3 -91 -1 -177 -13 -268 l-17 -134 22 -62 c55 -150 315 -611 376 -664 65
-58 80 -45 587 553 70 82 151 177 181 212 31 34 68 83 83 110 28 46 28 50 29
217 0 190 11 235 66 292 36 37 52 41 243 53 149 10 707 2 797 -10z m2350 -153
c104 -51 168 -148 189 -288 10 -64 9 -87 -5 -149 -28 -124 -90 -200 -200 -243
-48 -19 -73 -21 -416 -21 l-365 -1 -57 -27 c-77 -36 -111 -87 -116 -175 -6
-89 13 -148 63 -199 74 -74 93 -77 495 -83 332 -6 358 -8 400 -27 52 -24 100
-75 101 -107 5 -114 -10 -165 -60 -210 -67 -61 -100 -66 -452 -71 -173 -3
-338 -10 -367 -16 -124 -27 -183 -115 -161 -239 13 -66 41 -101 108 -129 94
-41 217 -50 546 -43 139 4 156 2 227 -21 128 -42 221 -114 269 -208 33 -63 31
-111 -5 -149 -58 -60 -82 -64 -501 -68 -209 -2 -564 0 -790 5 -350 8 -417 12
-460 28 -125 44 -197 123 -238 261 -29 99 -42 633 -28 1197 l12 494 -26 86
c-55 173 -21 295 98 361 32 18 84 38 115 44 67 14 735 29 1232 27 l335 -1 57
-28z m5546 -12 c94 -3 113 -13 143 -80 14 -31 18 -63 18 -145 0 -58 -4 -125
-8 -150 -6 -41 -2 -56 50 -165 120 -253 235 -579 333 -947 56 -210 130 -423
237 -689 32 -81 59 -153 59 -161 0 -38 -26 -43 -265 -46 -265 -4 -427 8 -483
37 -21 11 -56 39 -77 63 -113 128 -166 176 -208 186 -62 16 -539 35 -883 35
-382 0 -352 13 -414 -173 -40 -119 -49 -137 -75 -150 -25 -12 -84 -14 -320
-14 -295 0 -338 5 -351 39 -15 39 31 107 214 314 97 110 160 213 269 438 149
308 501 980 639 1219 l53 92 -6 91 c-8 130 19 193 92 214 17 5 754 -1 983 -8z
m-2506 -4 c94 -6 111 -10 133 -31 51 -48 23 -125 -69 -184 -35 -22 -64 -51
-81 -81 l-27 -46 1 -527 c1 -290 6 -679 11 -864 6 -218 6 -355 0 -388 -38
-200 -189 -304 -414 -286 -129 11 -185 25 -281 71 -115 56 -211 134 -326 265
-208 236 -588 596 -686 648 -70 37 -127 42 -142 14 -6 -12 -8 -81 -4 -178 10
-262 -26 -639 -67 -713 -12 -20 -37 -48 -57 -61 -33 -23 -46 -25 -142 -25 -86
0 -113 4 -145 20 -71 36 -78 54 -83 221 -6 154 7 505 32 864 24 360 26 413 16
511 -5 56 -20 127 -35 167 -28 78 -56 214 -56 271 0 58 28 150 58 191 39 55
107 97 182 114 72 16 533 33 593 22 20 -4 50 -18 66 -32 l30 -25 -6 -112 c-7
-138 2 -163 107 -287 104 -123 377 -489 508 -682 62 -91 128 -178 147 -192
112 -86 172 -38 201 162 21 141 29 494 15 622 -18 150 -34 212 -81 304 -62
122 -57 189 15 229 43 23 368 34 587 18z m5265 -40 c206 -28 349 -63 449 -110
255 -120 411 -296 491 -558 25 -82 27 -102 27 -273 l1 -185 -34 -68 c-55 -109
-200 -254 -332 -331 -70 -40 -99 -71 -99 -104 0 -39 37 -71 140 -122 269 -133
655 -377 698 -439 46 -69 41 -130 -15 -192 -107 -119 -242 -128 -538 -38 -230
71 -632 251 -854 384 -123 73 -262 143 -381 190 -98 38 -298 95 -337 95 -54 0
-67 -90 -37 -262 17 -96 14 -208 -6 -279 -17 -62 -63 -114 -127 -145 -50 -25
-69 -29 -138 -28 -103 2 -250 41 -370 98 -156 75 -180 127 -179 381 0 111 7
202 22 295 34 222 45 443 38 765 -4 160 -12 355 -19 435 -14 167 -7 250 26
324 33 70 66 107 129 141 97 54 114 55 728 51 507 -3 581 -6 717 -25z m3205 4
c430 -57 729 -254 893 -590 114 -232 159 -497 120 -704 -76 -400 -323 -705
-733 -906 -346 -170 -771 -255 -1266 -255 -295 0 -371 19 -468 122 -88 92 -85
68 -118 846 -16 378 -32 710 -35 737 -8 60 -33 119 -69 160 -15 17 -39 55 -54
85 -23 47 -27 68 -27 140 0 140 56 234 172 292 56 28 79 33 157 36 62 3 110
-1 152 -12 80 -21 117 -20 266 4 336 53 793 74 1010 45z m2542 -25 c281 -20
432 -76 589 -220 112 -102 204 -262 226 -391 14 -85 14 -256 0 -300 -30 -89
-101 -139 -196 -139 -82 0 -127 15 -162 55 -32 37 -34 44 -50 242 -11 138 -28
183 -88 232 -76 62 -224 88 -413 70 -238 -22 -396 -113 -476 -275 -30 -60 -37
-86 -41 -157 -11 -176 42 -262 198 -320 105 -40 180 -48 514 -57 324 -9 405
-16 495 -40 113 -30 221 -114 265 -204 49 -100 53 -308 9 -456 -23 -77 -75
-175 -128 -242 -135 -169 -306 -235 -696 -269 -290 -24 -1010 9 -1185 56 -200
53 -263 198 -140 320 96 96 233 111 473 51 213 -54 276 -66 397 -76 196 -17
394 14 528 81 118 60 207 177 207 272 0 38 -53 92 -106 106 -57 15 -280 30
-604 40 -326 11 -384 21 -523 93 -93 49 -215 157 -272 244 -99 149 -145 289
-145 444 0 217 87 411 262 583 172 169 437 249 878 265 19 1 102 -3 184 -8z"/>
<path d="M12490 12408 c-39 -27 -149 -160 -221 -267 -41 -60 -49 -81 -47 -110
3 -32 7 -37 42 -49 67 -21 217 -42 311 -42 119 0 159 18 163 74 6 75 -94 337
-149 389 -36 33 -56 34 -99 5z"/>
<path d="M15302 12759 c-23 -12 -52 -35 -65 -53 -20 -29 -22 -41 -21 -166 2
-185 14 -237 69 -298 82 -91 192 -119 435 -108 248 10 404 42 505 100 91 54
166 166 167 253 4 180 -335 293 -877 293 -153 0 -174 -2 -213 -21z"/>
<path d="M18291 12661 c-24 -4 -50 -16 -57 -26 -11 -15 -14 -96 -13 -414 1
-218 4 -484 8 -591 l6 -195 33 -3 c42 -4 191 38 295 83 174 75 371 228 456
355 68 103 102 322 70 459 -34 148 -159 274 -314 317 -67 18 -406 29 -484 15z"/>
</g>
</svg>
