<?xml version="1.0" standalone="no"?>
<!DOCTYPE svg PUBLIC "-//W3C//DTD SVG 20010904//EN"
 "http://www.w3.org/TR/2001/REC-SVG-20010904/DTD/svg10.dtd">
<svg version="1.0" xmlns="http://www.w3.org/2000/svg"
 width="459.000000pt" height="800.000000pt" viewBox="0 0 459.000000 800.000000"
 preserveAspectRatio="xMidYMid meet">

<g transform="translate(0.000000,800.000000) scale(0.100000,-0.100000)"
fill="#000000" stroke="none">
<path d="M2260 7821 c-18 -11 -165 -60 -825 -276 -280 -92 -681 -224 -890
-293 l-380 -127 -3 -2384 -2 -2384 47 7 c27 4 104 14 173 22 211 26 450 60
493 70 l27 6 0 1359 0 1359 215 0 c202 0 215 -1 206 -17 -5 -10 -21 -29 -35
-42 l-26 -24 0 -1290 0 -1289 23 7 c12 4 37 9 55 12 l32 5 0 1314 c0 1043 3
1316 13 1319 6 3 444 4 972 3 l959 -3 -37 -41 -37 -41 0 -1017 c0 -559 4
-1016 8 -1016 24 0 102 33 102 43 0 7 0 469 0 1028 0 559 3 1024 6 1033 5 14
29 16 170 16 l164 0 0 -976 c0 -925 1 -976 18 -970 91 35 335 146 502 229
l205 102 3 1781 2 1781 -327 108 c-181 60 -436 144 -568 187 -132 44 -464 153
-737 244 -273 90 -500 164 -505 164 -4 0 -15 -4 -23 -9z m-1206 -883 c9 -12
16 -35 16 -51 0 -15 7 -30 15 -33 20 -8 20 -107 0 -164 -14 -41 -14 -45 4 -64
10 -12 33 -43 50 -70 l30 -49 -19 -27 c-16 -22 -20 -45 -20 -103 0 -69 2 -77
35 -120 19 -25 35 -49 35 -52 0 -4 -9 -20 -21 -36 l-20 -29 47 0 46 0 -36 -44
c-34 -42 -37 -50 -39 -123 l-2 -78 83 -5 83 -5 -35 -42 c-34 -39 -36 -45 -36
-117 l0 -76 105 0 105 0 0 120 0 120 55 0 c60 0 70 13 35 45 -11 10 -20 21
-20 25 0 4 16 23 37 43 l36 37 -13 55 c-7 31 -14 74 -14 97 -1 38 1 42 31 50
17 4 48 5 70 0 37 -8 38 -9 41 -55 2 -25 -4 -67 -13 -93 l-16 -47 43 -44 42
-43 -27 -28 c-15 -15 -27 -31 -27 -35 0 -4 23 -7 50 -7 28 0 50 -4 50 -8 0 -5
-13 -21 -30 -37 -29 -27 -30 -33 -30 -111 l0 -83 100 -3 100 -3 0 123 0 122
45 0 44 0 3 113 3 112 53 3 52 3 0 64 c0 39 -6 78 -17 99 l-16 35 46 60 47 59
-12 82 c-11 74 -11 83 5 91 9 6 17 22 17 37 0 44 15 56 62 53 13 -1 20 -13 24
-42 4 -22 13 -43 21 -46 12 -5 13 -18 8 -67 -4 -33 -12 -69 -17 -79 -7 -14 2
-32 43 -84 l51 -65 -21 -43 c-14 -28 -21 -61 -21 -98 l0 -56 56 -3 56 -3 -27
-29 c-21 -23 -28 -43 -32 -87 -3 -31 -3 -69 1 -83 6 -24 10 -25 77 -28 l72 -3
-34 -40 c-33 -40 -34 -43 -31 -118 l4 -77 98 0 99 0 3 118 3 117 58 3 c31 2
57 6 57 9 0 4 -12 20 -27 35 l-27 28 44 45 c40 41 43 46 32 70 -7 14 -15 57
-18 94 l-7 69 39 6 c22 3 55 2 74 -2 l35 -8 -3 -55 c-2 -29 -8 -71 -13 -92 -9
-35 -7 -42 18 -74 15 -19 32 -41 37 -48 6 -8 2 -19 -12 -33 -32 -32 -27 -42
23 -42 25 0 45 -4 45 -8 0 -5 -13 -21 -30 -37 -29 -27 -30 -33 -30 -112 0 -59
4 -83 13 -83 6 -1 53 -1 102 -2 l90 -1 3 121 3 122 44 0 45 0 0 125 0 125 41
0 c22 0 39 3 37 8 -2 4 -10 19 -17 34 -13 25 -11 30 23 76 33 46 36 55 36 117
0 51 -5 76 -21 101 l-21 34 23 38 c12 20 33 52 46 70 21 28 23 37 14 62 -5 16
-13 60 -17 98 -6 65 -5 69 15 75 13 3 19 10 15 20 -3 8 2 31 10 51 11 27 21
36 38 36 34 0 48 -18 48 -63 0 -31 4 -40 21 -44 20 -5 21 -10 14 -72 -3 -36
-11 -80 -16 -97 -8 -27 -5 -38 36 -98 25 -37 45 -72 45 -77 0 -4 -9 -23 -20
-41 -14 -23 -20 -51 -20 -93 0 -60 6 -74 57 -142 l22 -29 -30 -45 -29 -44 0
-325 0 -325 55 -73 c30 -40 55 -78 55 -83 0 -13 -2997 -12 -3005 1 -4 6 18 44
49 85 l56 74 0 321 0 321 -30 44 c-16 24 -30 47 -30 50 0 4 16 26 35 49 34 41
35 46 35 122 -1 54 -5 85 -15 98 -23 30 -19 48 25 110 l41 58 -16 75 c-21 102
-20 129 5 136 13 3 18 11 14 20 -3 8 2 31 10 51 18 43 55 50 80 14z"/>
<path d="M1620 4383 l0 -457 68 67 68 67 187 0 187 0 0 140 0 140 -200 0 -200
0 0 45 0 45 200 0 200 0 0 143 0 143 55 54 c30 30 55 58 55 62 0 4 -139 8
-310 8 l-310 0 0 -457z"/>
<path d="M2390 4385 c0 -250 4 -455 8 -455 4 0 37 29 72 65 l64 65 188 0 188
0 0 140 0 140 -202 2 c-187 3 -203 4 -206 21 -2 10 -1 29 2 43 l6 24 198 2
197 3 3 145 3 145 56 58 57 57 -317 0 -317 0 0 -455z"/>
<path d="M1620 3360 c0 -247 3 -450 7 -450 3 0 34 27 69 60 l62 60 186 0 186
0 0 140 0 140 -200 0 -200 0 0 45 0 45 200 0 200 0 0 146 0 145 57 60 56 59
-311 0 -312 0 0 -450z"/>
<path d="M2390 3353 l0 -456 69 66 69 67 191 0 191 0 0 140 0 140 -205 0 -205
0 0 45 0 45 203 2 202 3 3 145 3 145 56 58 57 57 -317 0 -317 0 0 -457z"/>
<path d="M4330 3019 c-303 -120 -965 -323 -1470 -450 -825 -208 -1751 -351
-2570 -397 l-125 -7 -3 -641 c-2 -506 1 -644 10 -652 7 -5 269 -94 583 -197
314 -103 786 -259 1050 -346 264 -87 484 -159 488 -159 8 0 905 294 1752 574
l370 123 3 1091 c1 601 -1 1092 -5 1091 -5 0 -42 -14 -83 -30z m-2350 -1049
c0 -6 -7 -27 -15 -47 -12 -29 -15 -103 -15 -438 0 -335 3 -409 15 -438 8 -20
15 -41 15 -47 0 -6 -60 -10 -170 -10 -93 0 -170 3 -170 8 0 4 7 29 15 56 8 27
12 58 9 70 -3 12 -41 45 -85 76 -44 30 -99 69 -122 86 -23 17 -107 75 -187
129 -80 54 -189 129 -242 167 l-98 68 0 -294 c0 -237 3 -299 14 -322 8 -15 13
-31 10 -36 -7 -11 -354 -10 -354 1 0 5 7 25 15 44 13 30 15 104 15 444 0 390
-1 409 -20 441 -11 18 -20 35 -20 37 0 3 75 5 166 5 l166 0 170 -116 c94 -64
205 -140 247 -169 42 -29 130 -89 196 -134 l120 -82 3 222 c2 185 0 226 -13
245 -8 13 -15 26 -15 28 0 3 75 7 168 9 92 1 170 4 175 5 4 1 7 -3 7 -8z m590
-8 c0 -4 -7 -18 -16 -30 -23 -33 -22 -847 1 -892 8 -16 15 -34 15 -40 0 -11
-332 -15 -343 -4 -3 4 0 22 8 41 22 52 21 856 0 893 -8 14 -14 28 -15 33 0 4
79 7 175 7 96 0 175 -3 175 -8z m590 1 c-1 -5 -7 -19 -15 -33 -12 -20 -14 -89
-15 -367 l0 -343 290 0 290 0 0 343 c-1 285 -3 345 -15 361 -33 44 -25 46 160
46 96 0 175 -3 175 -7 -1 -5 -7 -19 -15 -33 -12 -20 -14 -92 -15 -386 0 -418
15 -363 -129 -478 l-94 -76 -357 0 -357 0 -111 87 -112 88 0 367 c0 355 -1
368 -21 402 l-21 36 181 0 c100 0 181 -3 181 -7z"/>
</g>
</svg>
