<?xml version="1.0" standalone="no"?>
<!DOCTYPE svg PUBLIC "-//W3C//DTD SVG 20010904//EN"
 "http://www.w3.org/TR/2001/REC-SVG-20010904/DTD/svg10.dtd">
<svg version="1.0" xmlns="http://www.w3.org/2000/svg"
 width="500.000000pt" height="500.000000pt" viewBox="0 0 500.000000 500.000000"
 preserveAspectRatio="xMidYMid meet">

<g transform="translate(0.000000,500.000000) scale(0.100000,-0.100000)"
fill="#000000" stroke="none">
<path d="M1959 4328 c-154 -158 -233 -374 -246 -670 l-6 -127 -81 -63 c-103
-81 -284 -260 -366 -363 -243 -306 -386 -630 -435 -987 l-6 -48 -105 0 c-123
0 -118 14 -48 -136 l44 -95 0 -369 0 -368 -49 -109 -49 -108 159 -3 159 -2 0
-34 c0 -19 -16 -75 -35 -125 -19 -49 -35 -93 -35 -96 0 -3 691 -5 1535 -5 844
0 1535 2 1535 4 0 2 -22 43 -50 92 -34 62 -50 100 -50 126 l0 38 164 2 165 3
-50 114 -49 115 0 362 0 362 44 113 44 114 -347 5 -346 5 -3 24 c-6 40 16 175
38 234 35 94 29 91 275 132 254 42 333 67 428 131 119 82 199 200 238 353 l20
79 -62 94 c-33 51 -74 118 -89 149 l-29 56 -348 68 c-191 37 -358 69 -370 72
-21 5 -22 7 -9 32 14 27 12 30 -160 247 -97 120 -183 227 -193 238 -18 18 -20
16 -50 -66 l-32 -84 -52 7 c-29 4 -77 8 -107 9 l-55 1 -79 140 c-98 171 -193
319 -212 326 -75 28 -189 -117 -230 -293 -10 -41 -21 -73 -25 -72 -13 5 -99
112 -143 177 -24 37 -66 107 -93 156 -62 116 -79 120 -154 43z m44 -315 c31
-76 75 -143 139 -209 l49 -51 -78 -28 c-83 -29 -181 -76 -225 -106 -14 -11
-29 -19 -33 -19 -20 0 18 239 53 340 21 60 61 144 67 138 2 -1 14 -31 28 -65z
m1247 -310 c25 -31 75 -99 112 -151 71 -98 70 -96 33 -147 -14 -21 -10 -22
303 -89 174 -37 323 -69 330 -72 9 -2 4 -15 -18 -42 -58 -72 -59 -148 -3 -192
35 -27 43 -25 43 10 0 44 24 85 58 99 37 16 61 3 90 -48 l21 -36 19 45 20 45
32 -70 32 -69 -32 -66 -33 -65 -12 48 c-14 56 -22 67 -30 41 -26 -85 -84 -159
-177 -224 -84 -59 -54 -55 -595 -72 -221 -6 -406 -14 -411 -17 -13 -10 -132
-159 -132 -167 0 -6 72 -2 183 13 l48 6 -76 -126 c-41 -68 -75 -127 -75 -130
0 -3 50 15 112 39 61 24 114 44 118 44 3 0 -22 -56 -57 -125 l-64 -125 -77 0
c-42 0 -115 -3 -160 -7 l-84 -6 41 67 c35 56 39 68 25 73 -23 9 -233 -6 -332
-23 -112 -19 -220 -56 -311 -104 -41 -22 -77 -38 -79 -36 -7 7 51 111 110 198
33 48 98 128 145 178 75 80 82 90 57 84 -236 -54 -413 -133 -580 -259 -46 -35
-84 -58 -84 -51 0 7 9 47 20 90 36 141 129 286 242 376 31 25 55 46 54 48 -7
7 -245 -41 -306 -61 -39 -13 -70 -22 -70 -19 0 2 16 34 35 71 82 154 201 277
336 344 81 40 79 42 -55 59 -70 9 -109 9 -161 0 -38 -6 -71 -9 -73 -7 -9 9 40
74 96 127 102 98 211 138 372 138 87 -1 112 -4 205 -25 29 -6 30 -6 30 34 1
51 27 88 86 119 37 20 54 23 109 19 36 -3 72 -8 80 -11 12 -5 15 5 15 58 0 58
3 68 29 95 43 45 107 66 201 66 63 0 89 -5 122 -23 23 -12 47 -22 53 -22 6 0
10 24 10 55 0 30 3 55 8 55 4 -1 27 -26 52 -57z m-1965 -1364 c-19 -41 -44
-118 -57 -171 l-22 -98 -173 0 c-95 0 -173 4 -173 9 0 15 152 154 225 206 64
46 226 137 232 131 2 -2 -12 -36 -32 -77z m284 -211 c-4 -24 -8 -46 -9 -50 0
-5 -32 -8 -71 -8 -44 0 -68 4 -64 10 4 7 142 89 151 90 1 0 -2 -19 -7 -42z
m1795 -56 c-40 -5 -52 3 -47 32 l5 25 34 -27 34 -27 -26 -3z m-2471 -579 l-3
-433 83 0 c82 0 107 -9 107 -37 0 -10 -28 -13 -117 -13 l-118 0 0 460 0 461
25 -3 25 -3 -2 -432z m1117 202 c0 -129 -4 -235 -8 -235 -28 0 -32 30 -32 235
0 151 -3 214 -12 223 -9 9 -5 12 20 12 l32 0 0 -235z m430 -200 l0 -435 73 0
c72 0 97 -10 97 -37 0 -10 -27 -13 -112 -13 l-113 0 0 460 0 460 28 0 27 0 0
-435z m440 67 l0 -368 94 -67 95 -67 313 0 c313 0 313 0 288 -20 -24 -18 -42
-20 -330 -20 l-305 0 -107 80 -108 79 -2 376 -3 375 33 0 32 0 0 -368z m870
46 l0 -322 -32 -33 c-18 -18 -40 -33 -50 -33 -17 0 -17 2 2 28 20 27 21 38 18
355 l-3 327 33 0 32 0 0 -322z m-2177 -180 l437 -251 0 -58 0 -59 80 0 c68 0
81 -3 90 -19 5 -11 10 -22 10 -25 0 -3 -51 -6 -114 -6 l-114 0 1 65 2 66 -430
248 c-389 225 -430 251 -433 276 -3 23 -1 27 15 21 10 -4 215 -120 456 -258z
m2320 -385 c-7 -2 -14 -21 -15 -41 l-1 -37 -4 35 c-3 19 -10 38 -16 42 -7 4 1
7 18 7 17 0 24 -3 18 -6z m38 -20 l11 -28 10 29 c13 34 28 18 27 -29 -1 -29
-1 -29 -9 -5 -6 22 -8 23 -15 8 -4 -10 -11 -18 -15 -18 -5 0 -10 8 -13 18 -3
14 -6 13 -15 -8 -12 -29 -15 -17 -6 29 8 38 11 39 25 4z m-2797 -183 c-6 -28
-5 -30 25 -30 28 0 31 3 31 30 0 29 1 30 48 30 l47 0 0 -90 0 -90 -47 0 -48 0
0 35 c0 33 -2 35 -31 35 -31 0 -31 -1 -26 -35 l6 -35 -50 0 -49 0 0 90 0 90
50 0 50 0 -6 -30z m458 -34 c-4 -68 8 -84 51 -70 17 5 19 13 15 70 l-4 64 46
0 45 0 0 -72 c0 -67 -2 -75 -25 -90 -35 -25 -159 -25 -197 0 -26 16 -28 21
-28 90 l0 72 50 0 50 0 -3 -64z m555 38 c13 -21 13 -21 -41 -20 -56 1 -80 -17
-29 -22 56 -6 83 -23 83 -51 0 -41 -43 -61 -129 -61 -59 0 -72 3 -81 19 -15
29 -14 30 46 28 70 -2 85 18 22 28 -54 10 -78 25 -78 51 0 32 53 54 129 51 52
-2 66 -6 78 -23z m307 1 c-3 -14 -2 -25 4 -25 5 0 26 11 46 25 26 17 50 25 81
25 54 0 57 -11 10 -33 -19 -9 -35 -22 -35 -29 0 -7 18 -37 40 -65 l40 -53 -58
0 c-57 1 -57 1 -76 41 -24 52 -51 50 -51 -4 l0 -37 -50 0 -50 0 0 90 0 90 53
0 c51 0 52 -1 46 -25z m461 -65 l0 -90 -50 0 -50 0 0 90 0 90 50 0 50 0 0 -90z
m412 63 c14 -21 14 -21 -46 -16 -42 4 -61 2 -61 -6 0 -6 15 -11 35 -11 31 0
35 -3 35 -25 0 -22 -4 -25 -36 -25 -24 0 -34 -4 -31 -12 3 -9 24 -12 65 -11
l61 1 -15 -24 c-15 -23 -22 -24 -113 -24 l-96 0 0 90 0 91 94 -3 c83 -3 95 -5
108 -25z m389 10 c21 -28 16 -34 -21 -27 -44 8 -96 -3 -74 -17 7 -5 24 -9 36
-9 43 0 73 -21 73 -51 0 -40 -41 -59 -128 -59 -64 0 -70 2 -80 26 l-12 25 44
-6 c45 -7 86 0 86 14 0 5 -19 11 -41 15 -58 9 -79 23 -79 51 0 35 42 54 119
55 49 0 67 -4 77 -17z"/>
<path d="M2884 3565 c3 -9 13 -40 22 -70 15 -53 15 -56 -5 -81 -39 -50 -19
-102 53 -135 67 -30 135 -22 183 23 20 19 25 20 55 7 18 -7 61 -37 94 -65 l62
-52 -20 76 c-11 42 -25 82 -31 89 -13 13 -401 223 -412 223 -4 0 -4 -7 -1 -15z"/>
</g>
</svg>
