<svg version="1.1" id="Layer_1" xmlns="http://www.w3.org/2000/svg" xmlns:xlink="http://www.w3.org/1999/xlink" x="0px" y="0px"
	 width="100%" viewBox="0 0 540 540" enable-background="new 0 0 540 540" xml:space="preserve">
<path fill="#000000" opacity="1.000000" stroke="none" 
	d="
M286.000000,541.000000 
	C190.688599,541.000000 95.877205,541.000000 1.032906,541.000000 
	C1.032906,361.063568 1.032906,181.127151 1.032906,1.095364 
	C180.894730,1.095364 360.789520,1.095364 540.842163,1.095364 
	C540.842163,180.999893 540.842163,360.999939 540.842163,541.000000 
	C456.127106,541.000000 371.313568,541.000000 286.000000,541.000000 
M482.149445,388.269104 
	C483.091888,383.485229 484.678711,378.723938 484.847626,373.912903 
	C485.244934,362.596771 484.960510,351.256836 484.960144,339.926544 
	C484.958282,281.775421 484.976562,223.624298 484.931854,165.473206 
	C484.927368,159.639267 484.144501,153.958786 478.944733,149.286255 
	C477.482544,147.821671 476.252014,145.955978 474.521240,144.956406 
	C461.516724,137.445740 448.426392,130.083115 435.338531,122.717445 
	C413.568237,110.465401 391.793488,98.221107 369.993561,86.021927 
	C357.727264,79.157753 345.390747,72.419273 333.114624,65.572533 
	C316.246490,56.164692 299.495422,46.542137 282.515289,37.341827 
	C273.984589,32.719658 265.137421,33.483810 256.743927,38.100277 
	C247.305801,43.291302 238.032364,48.780800 228.643341,54.062302 
	C203.741379,68.070084 178.830856,82.062805 153.895386,96.010841 
	C127.102219,110.998016 100.378006,126.113403 73.417046,140.793304 
	C62.173740,146.915131 56.826202,155.369888 56.884640,168.468613 
	C57.192272,237.428589 56.976955,306.390808 57.152054,375.351715 
	C57.162800,379.583771 58.964542,383.811279 60.023270,388.732971 
	C62.985817,391.808807 65.492073,395.610687 69.001572,397.816254 
	C77.491516,403.151855 86.444557,407.751587 95.219688,412.632172 
	C110.036972,420.873260 124.901840,429.029724 139.672699,437.353088 
	C162.327805,450.119202 184.905914,463.021881 207.544006,475.818298 
	C223.447144,484.807709 239.462662,493.600342 255.300293,502.703003 
	C265.779572,508.725922 276.046844,508.919342 286.470215,502.801147 
	C292.712708,499.137024 298.968414,495.493134 305.273132,491.937592 
	C329.503052,478.273071 353.733826,464.609833 378.004547,451.017883 
	C407.162628,434.689026 436.355011,418.421356 465.548462,402.155762 
	C471.752167,398.699341 477.939514,395.261505 482.149445,388.269104 
z"/>
<path fill="#0085D3" opacity="1.000000" stroke="none" 
	d="
M59.932972,388.040924 
	C58.964542,383.811279 57.162800,379.583771 57.152054,375.351715 
	C56.976955,306.390808 57.192272,237.428589 56.884640,168.468613 
	C56.826202,155.369888 62.173740,146.915131 73.417046,140.793304 
	C100.378006,126.113403 127.102219,110.998016 153.895386,96.010841 
	C178.830856,82.062805 203.741379,68.070084 228.643341,54.062302 
	C238.032364,48.780800 247.305801,43.291302 256.743927,38.100277 
	C265.137421,33.483810 273.984589,32.719658 282.515289,37.341827 
	C299.495422,46.542137 316.246490,56.164692 333.114624,65.572533 
	C345.390747,72.419273 357.727264,79.157753 369.993561,86.021927 
	C391.793488,98.221107 413.568237,110.465401 435.338531,122.717445 
	C448.426392,130.083115 461.516724,137.445740 474.521240,144.956406 
	C476.252014,145.955978 477.482544,147.821671 478.643768,149.702179 
	C466.337402,156.783829 454.337585,163.459641 442.325104,170.112518 
	C430.313721,176.764801 418.289703,183.394150 406.052612,189.754822 
	C405.097565,188.367432 404.347198,187.267731 403.626740,186.148804 
	C349.875641,102.670921 234.338318,88.446037 162.488770,157.120407 
	C124.682587,193.255859 109.257111,238.214661 114.780396,290.272827 
	C116.915634,310.397888 123.600792,329.084320 132.512207,347.125000 
	C122.851158,352.605927 113.503685,357.954041 104.120758,363.239197 
	C89.404060,371.528748 74.663445,379.775848 59.932972,388.040924 
z"/>
<path fill="#00549D" opacity="1.000000" stroke="none" 
	d="
M59.978119,388.386963 
	C74.663445,379.775848 89.404060,371.528748 104.120758,363.239197 
	C113.503685,357.954041 122.851158,352.605927 132.741623,347.392639 
	C133.704773,348.204681 134.155991,348.901367 134.574753,349.616974 
	C176.210144,420.762054 262.921051,448.245209 337.634521,413.604736 
	C367.749359,399.642212 391.196289,378.057953 407.863342,349.115906 
	C423.925140,357.803253 439.662201,366.411255 455.440460,374.943024 
	C464.191345,379.674835 473.011139,384.279236 481.799866,388.941040 
	C477.939514,395.261505 471.752167,398.699341 465.548462,402.155762 
	C436.355011,418.421356 407.162628,434.689026 378.004547,451.017883 
	C353.733826,464.609833 329.503052,478.273071 305.273132,491.937592 
	C298.968414,495.493134 292.712708,499.137024 286.470215,502.801147 
	C276.046844,508.919342 265.779572,508.725922 255.300293,502.703003 
	C239.462662,493.600342 223.447144,484.807709 207.544006,475.818298 
	C184.905914,463.021881 162.327805,450.119202 139.672699,437.353088 
	C124.901840,429.029724 110.036972,420.873260 95.219688,412.632172 
	C86.444557,407.751587 77.491516,403.151855 69.001572,397.816254 
	C65.492073,395.610687 62.985817,391.808807 59.978119,388.386963 
z"/>
<path fill="#0175BF" opacity="1.000000" stroke="none" 
	d="
M481.974670,388.605072 
	C473.011139,384.279236 464.191345,379.674835 455.440460,374.943024 
	C439.662201,366.411255 423.925140,357.803253 407.622589,348.835785 
	C385.570801,336.598389 364.077362,324.733917 342.539276,312.951080 
	C341.222107,312.230530 339.551575,312.155945 337.911774,311.485046 
	C336.513550,310.146271 335.375000,308.875488 333.964996,308.095490 
	C319.716156,300.213745 305.394714,292.463226 291.153046,284.568695 
	C283.034454,280.068329 275.025757,275.369751 267.180145,270.508362 
	C268.211578,269.692383 268.994843,269.066315 269.854523,268.573608 
	C292.528198,255.578827 315.209808,242.597839 338.283203,229.626968 
	C360.285522,217.313644 381.901184,204.999161 403.484558,192.628387 
	C404.556915,192.013763 405.348755,190.909729 406.271210,190.033569 
	C418.289703,183.394150 430.313721,176.764801 442.325104,170.112518 
	C454.337585,163.459641 466.337402,156.783829 478.700317,150.051254 
	C484.144501,153.958786 484.927368,159.639267 484.931854,165.473206 
	C484.976562,223.624298 484.958282,281.775421 484.960144,339.926544 
	C484.960510,351.256836 485.244934,362.596771 484.847626,373.912903 
	C484.678711,378.723938 483.091888,383.485229 481.974670,388.605072 
M451.002228,252.404297 
	C451.002228,247.464798 451.002228,242.525299 451.002228,237.390076 
	C443.323822,237.390076 436.237274,237.390076 428.525330,237.390076 
	C428.525330,244.827072 428.525330,252.070602 428.525330,259.899475 
	C420.698486,259.899475 413.484344,259.899475 406.260254,259.899475 
	C406.260254,267.598724 406.260254,274.685455 406.260254,282.370728 
	C413.721405,282.370728 420.934662,282.370728 428.776306,282.370728 
	C428.776306,290.180267 428.776306,297.396362 428.776306,304.491974 
	C436.521088,304.491974 443.608093,304.491974 451.207886,304.491974 
	C451.207886,296.933960 451.207886,289.700317 451.207886,282.086792 
	C458.829285,282.086792 465.934601,282.086792 473.135498,282.086792 
	C473.135498,274.485657 473.135498,267.295105 473.135498,259.683777 
	C465.619507,259.683777 458.522552,259.683777 451.002228,259.683777 
	C451.002228,257.302734 451.002228,255.337662 451.002228,252.404297 
M364.415253,237.175323 
	C359.647583,237.175323 354.879883,237.175323 349.552643,237.175323 
	C349.552643,245.123413 349.552643,252.356079 349.552643,259.960144 
	C341.862091,259.960144 334.757385,259.960144 327.404907,259.960144 
	C327.404907,267.434998 327.404907,274.507172 327.404907,282.160889 
	C334.830109,282.160889 342.058258,282.160889 349.871094,282.160889 
	C349.871094,289.946045 349.871094,297.167816 349.871094,304.538513 
	C357.543182,304.538513 364.611847,304.538513 372.272369,304.538513 
	C372.272369,297.038208 372.272369,289.812622 372.272369,282.019531 
	C380.078766,282.019531 387.301819,282.019531 394.535217,282.019531 
	C394.535217,274.353394 394.535217,267.280151 394.535217,259.644592 
	C386.990051,259.644592 379.754700,259.644592 371.931305,259.644592 
	C371.931305,251.869476 371.931305,244.650833 371.931305,237.175323 
	C369.344910,237.175323 367.366058,237.175323 364.415253,237.175323 
z"/>
<path fill="#FDFEFE" opacity="1.000000" stroke="none" 
	d="
M406.052612,189.754837 
	C405.348755,190.909729 404.556915,192.013763 403.484558,192.628387 
	C381.901184,204.999161 360.285522,217.313644 338.115448,229.304993 
	C308.608978,185.393967 249.793671,179.554810 213.997040,216.703812 
	C190.529327,241.058090 185.226517,280.776703 201.877563,308.380859 
	C218.450958,338.152985 249.493912,353.900787 282.841278,348.768555 
	C306.749298,345.089050 325.449066,332.773926 338.045471,311.780823 
	C339.551575,312.155945 341.222107,312.230530 342.539276,312.951080 
	C364.077362,324.733917 385.570801,336.598389 407.315063,348.724579 
	C391.196289,378.057953 367.749359,399.642212 337.634521,413.604736 
	C262.921051,448.245209 176.210144,420.762054 134.574753,349.616974 
	C134.155991,348.901367 133.704773,348.204681 133.039291,347.231567 
	C123.600792,329.084320 116.915634,310.397888 114.780396,290.272827 
	C109.257111,238.214661 124.682587,193.255859 162.488770,157.120407 
	C234.338318,88.446037 349.875641,102.670921 403.626740,186.148804 
	C404.347198,187.267731 405.097565,188.367432 406.052612,189.754837 
z"/>
<path fill="#0185D3" opacity="1.000000" stroke="none" 
	d="
M201.804901,308.024078 
	C185.226517,280.776703 190.529327,241.058090 213.997040,216.703812 
	C249.793671,179.554810 308.608978,185.393967 337.722321,229.292542 
	C315.209808,242.597839 292.528198,255.578827 269.854523,268.573608 
	C268.994843,269.066315 268.211578,269.692383 266.838257,270.630066 
	C258.437927,275.378479 250.539078,279.661316 242.757812,284.148010 
	C229.068970,292.041016 215.451981,300.058655 201.804901,308.024078 
z"/>
<path fill="#01559D" opacity="1.000000" stroke="none" 
	d="
M201.877563,308.380859 
	C215.451981,300.058655 229.068970,292.041016 242.757812,284.148010 
	C250.539078,279.661316 258.437927,275.378479 266.625671,270.882141 
	C275.025757,275.369751 283.034454,280.068329 291.153046,284.568695 
	C305.394714,292.463226 319.716156,300.213745 333.964996,308.095490 
	C335.375000,308.875488 336.513550,310.146271 337.911774,311.485046 
	C325.449066,332.773926 306.749298,345.089050 282.841278,348.768555 
	C249.493912,353.900787 218.450958,338.152985 201.877563,308.380859 
z"/>
<path fill="#FCFDFD" opacity="1.000000" stroke="none" 
	d="
M451.002228,252.888443 
	C451.002228,255.337662 451.002228,257.302734 451.002228,259.683777 
	C458.522552,259.683777 465.619507,259.683777 473.135498,259.683777 
	C473.135498,267.295105 473.135498,274.485657 473.135498,282.086792 
	C465.934601,282.086792 458.829285,282.086792 451.207886,282.086792 
	C451.207886,289.700317 451.207886,296.933960 451.207886,304.491974 
	C443.608093,304.491974 436.521088,304.491974 428.776306,304.491974 
	C428.776306,297.396362 428.776306,290.180267 428.776306,282.370728 
	C420.934662,282.370728 413.721405,282.370728 406.260254,282.370728 
	C406.260254,274.685455 406.260254,267.598724 406.260254,259.899475 
	C413.484344,259.899475 420.698486,259.899475 428.525330,259.899475 
	C428.525330,252.070602 428.525330,244.827072 428.525330,237.390076 
	C436.237274,237.390076 443.323822,237.390076 451.002228,237.390076 
	C451.002228,242.525299 451.002228,247.464798 451.002228,252.888443 
z"/>
<path fill="#FCFDFD" opacity="1.000000" stroke="none" 
	d="
M364.901245,237.175323 
	C367.366058,237.175323 369.344910,237.175323 371.931305,237.175323 
	C371.931305,244.650833 371.931305,251.869476 371.931305,259.644592 
	C379.754700,259.644592 386.990051,259.644592 394.535217,259.644592 
	C394.535217,267.280151 394.535217,274.353394 394.535217,282.019531 
	C387.301819,282.019531 380.078766,282.019531 372.272369,282.019531 
	C372.272369,289.812622 372.272369,297.038208 372.272369,304.538513 
	C364.611847,304.538513 357.543182,304.538513 349.871094,304.538513 
	C349.871094,297.167816 349.871094,289.946045 349.871094,282.160889 
	C342.058258,282.160889 334.830109,282.160889 327.404907,282.160889 
	C327.404907,274.507172 327.404907,267.434998 327.404907,259.960144 
	C334.757385,259.960144 341.862091,259.960144 349.552643,259.960144 
	C349.552643,252.356079 349.552643,245.123413 349.552643,237.175323 
	C354.879883,237.175323 359.647583,237.175323 364.901245,237.175323 
z"/>
</svg>